<?xml version="1.0" encoding="UTF-8"?>
<svg width="274px" height="256px" viewBox="0 0 274 256" version="1.1" xmlns="http://www.w3.org/2000/svg" xmlns:xlink="http://www.w3.org/1999/xlink">
    <title>cup</title>
    <g id="Page-1" stroke="none" stroke-width="1" fill="none" fill-rule="evenodd">
        <g id="grinders" transform="translate(-558.000000, -45.000000)" fill-rule="nonzero">
            <g id="cup" transform="translate(558.000000, 45.000000)">
                <path d="M33.6844013,129 C27.5745519,125.726701 21.9803518,121.563462 17.0834594,116.645473 C9.51231789,109.275513 4.12218629,99.9422607 1.51130818,89.6816006 C-2.13303773,74.5443508 2.57862669,58.6061909 13.8567974,47.920481 C20.5348818,40.6019461 30.3332404,36.9940815 40.1377252,38.2435512 C52.3429248,39.8876897 62.9114118,49.0009149 70.3,57.6443862 L56.5048511,77.7498521 C52.9556351,72.1245175 48.193113,67.3724948 42.5694125,63.8451374 C39.7162986,62.2372103 36.3190425,61.9173084 33.2181559,62.9645777 C30.1172694,64.0118474 27.6024232,66.3284574 26.295813,69.3412577 C18.7201719,83.7157264 29.522475,98.5599488 41.4938585,106.357863 L33.6844013,129 Z" id="Shape" fill="#FDFCFA"></path>
                <path d="M218.3,146.102158 C207.02552,154.747234 190.865433,159.943728 170.242531,158.857188 C155.256869,158.054094 146.660078,154.652753 141.727493,149.5035 C128.198118,135.472967 142.197263,108.829126 127.822302,89.4603765 C116.671713,75.2009969 99.0881832,67.6050831 81.127166,69.2885326 C77.0401672,59.2262311 76.1006272,51.242527 78.9192471,46.5656826 C78.9192471,46.5184418 78.9192471,46.5184418 78.9662241,46.4712009 L78.9662241,46.4239601 C79.3209925,45.8794634 79.7302599,45.3729206 80.187626,44.9122528 C92.1197835,32.9130763 137.452587,59.0845085 181.517011,103.349187 C194.833586,116.646043 207.129738,130.937895 218.3,146.102158 L218.3,146.102158 Z" id="Shape" fill="#BDC3C7"></path>
                <path d="M238.3,206.675521 C219.675467,222.709093 126.930006,295.756164 58.2314111,227.047589 C27.3476913,196.206541 25.1316076,160.461105 33.4772846,128.818378 C35.5331481,121.056416 38.1651767,113.458679 41.3514543,106.088431 C45.6754427,96.1523053 50.7346111,86.5526757 56.4868345,77.3694729 C61.3905091,69.4470017 66.2941837,62.561997 70.3962961,57.1860344 C73.7911477,52.7532231 76.6201908,49.3107208 78.6476716,47 C75.8186286,51.6685991 76.7616429,59.6382279 80.8637553,69.6827896 C89.0679801,89.9133856 109.955748,118.726659 138.246178,147.021199 C139.283494,148.058665 140.32081,149.048974 141.358125,150.086441 C182.756455,190.641948 224.579141,214.975252 238.3,206.675521 Z" id="Shape" fill="#FFFFFF"></path>
                <path d="M218.57785,146.011473 C207.385577,130.860419 195.065195,116.581017 181.722378,103.295744 C137.571121,59.0696258 92.1489869,32.9209922 80.1933163,44.9097159 C79.7350489,45.3699823 79.324975,45.876084 78.9695075,46.4201063 L78.9695075,46.467306 C78.9224379,46.5145057 78.9224379,46.5145057 78.9224379,46.5617054 C76.0982638,51.2344756 77.0396552,59.2112249 81.1347077,69.2647609 C89.3248128,89.513432 110.176632,118.352449 138.418374,146.672268 C139.453904,147.710662 140.489435,148.701855 141.524965,149.740249 C182.852047,190.33199 224.602755,214.687036 238.3,206.379888 L218.57785,146.011473 Z" id="Shape" fill="#C4B9AB"></path>
                <ellipse id="Oval" fill="#301505" transform="translate(198.142837, 27.130781) rotate(-45.000000) translate(-198.142837, -27.130781) " cx="198.142837" cy="27.1307811" rx="14.122005" ry="23.536675"></ellipse>
                <path d="M118.043146,206.652987 C104.923963,219.893783 86.867452,223.629579 75.3,216.299853 C83.5759007,207.551469 77.2749308,200.931071 85.974031,192.229976 C94.8141976,183.292439 101.444323,189.960125 110.331511,181.069876 C118.983589,172.321493 112.682619,165.748383 121.005542,157 C122.330674,157.85811 123.560305,158.8569 124.673271,159.979179 C135.629435,171.044702 132.714061,191.946245 118.043146,206.652987 Z" id="Shape" fill="#84563D"></path>
                <path d="M121.3,157.700147 C112.980075,166.448531 119.278775,173.02164 110.629814,181.770024 C101.745827,190.660273 95.1180906,183.992586 86.2811086,192.930124 C77.5851423,201.631218 83.8838422,208.251617 75.6109229,217 C74.2862687,216.14189 73.0570807,215.1431 71.9445155,214.020821 C60.9452932,202.955298 63.9066223,182.053755 78.572252,167.347013 C91.6867093,154.106217 109.736715,150.370421 121.3,157.700147 L121.3,157.700147 Z" id="Shape" fill="#4F2A06"></path>
                <path d="M141.3,149.6684 L140.968992,150 C139.928682,148.957828 138.888372,147.963028 137.848062,146.920856 C109.475969,118.497989 88.527907,89.5540363 80.3,69.2316864 C98.3794741,67.5435832 116.078971,75.1604951 127.303101,89.4592934 C141.772868,108.881586 127.681395,135.599081 141.3,149.6684 L141.3,149.6684 Z" id="Shape" fill="#301505"></path>
                <path d="M218.839815,146.011473 C207.626789,130.860419 195.283561,116.581017 181.916003,103.295744 C137.682879,59.0696258 92.1765207,32.9209922 80.1986812,44.9097159 C79.7395641,45.3699823 79.3287298,45.876084 78.9726032,46.4201063 L78.9726032,46.467306 C78.9254463,46.5145057 78.9254463,46.5145057 78.9254463,46.5617054 C75.6080811,51.2209473 75.6080811,58.1212145 81.1418182,71.6816406 C89.3963725,91.9094309 107.927781,118.412109 137.85664,146.93202 C138.918733,147.944113 139.931542,148.961607 140.968992,150 C181.584995,192.807617 223.133106,215.913796 238.3,206.675521 C243.15244,203.159143 236.382163,190.851187 236.382163,190.851187 L218.839815,146.011473 Z M148.246013,142.990692 L145.180818,140.017111 C141.832682,136.665932 138.626016,133.314753 135.419351,129.916375 C115.37769,108.346112 99.2500479,86.2094531 91.469168,69.4535597 C90.9032858,68.1791678 90.3374036,66.9519756 89.8658351,65.7247834 C87.7506175,61.4951754 86.6984563,56.8128547 86.80064,52.0840702 L87.4608359,51.5176738 C87.8663107,51.4531183 88.2763447,51.4215483 88.6869139,51.4232073 C102.268086,51.4232073 137.211311,71.9551438 175.266887,109.998102 C187.922448,122.598922 199.648115,136.102003 210.351582,150.401045 L210.634524,151.203439 L225.819029,197.600744 C212.803739,194.060767 190.309922,180.608852 164.798067,158.283394 C159.375029,153.610624 153.857678,148.465857 148.246013,142.990692 L148.246013,142.990692 Z" id="Shape" fill="#ECF0F1"></path>
                <path d="M257.217153,185.095585 C252.273736,193.33635 243.510023,198.543637 233.895751,198.952867 L233.730418,198.952867 C230.66081,199.132164 227.58274,198.799118 224.622931,197.967439 C218.872785,196.11036 213.549437,193.001863 208.307217,190 C204.858843,188.066864 201.220754,185.774475 197.3,183.228394 C185.810442,175.663486 175.105186,167.388599 164.798067,158.283394 C166.640349,158.471993 168.07904,159.304727 170.110274,159.399027 C190.847758,160.483469 207.097631,155.297007 218.434752,146.668622 C237.736293,132.753572 242.939229,106.29296 230.338729,86.1284728 C210.640481,53.1708684 277.009876,52.6993719 273.13636,128.893204 C272.481342,148.639702 267.017464,167.929791 257.217153,185.095585 Z" id="Shape" fill="#301505"></path>
                <path d="M239.212097,168.826808 C231.097288,178.71036 220.379545,186.053175 208.307217,190 C204.873342,188.044818 201.204269,185.803512 197.3,183.228394 C210.822959,180.596933 223.053949,173.362504 231.968031,162.722825 C233.630696,160.694876 236.600191,160.417321 238.600585,162.10289 C240.600978,163.788458 240.874761,166.798859 239.212097,168.826808 L239.212097,168.826808 Z" id="Shape" fill="#84563D"></path>
            </g>
        </g>
    </g>
</svg>